<svg width="127" height="42" viewBox="0 0 127 42" fill="none" xmlns="http://www.w3.org/2000/svg">
<g clip-path="url(#clip0_16_720)">
<path d="M40.3556 21.0622C40.3556 31.2494 32.8116 39.6676 23.0099 41.0435C22.646 41.0945 22.2789 41.1358 21.9086 41.1674C21.3387 41.2133 20.7625 41.2376 20.1802 41.2404C9.03422 41.2404 0 32.2034 0 21.0622C0 9.92106 9.03422 0.884766 20.1782 0.884766C31.3221 0.884766 40.3556 9.91899 40.3556 21.0622Z" fill="#2E3192"/>
<path d="M12.6823 26.7706C15.8348 26.7706 18.3905 24.215 18.3905 21.0624C18.3905 17.9098 15.8348 15.3541 12.6823 15.3541C9.52967 15.3541 6.974 17.9098 6.974 21.0624C6.974 24.215 9.52967 26.7706 12.6823 26.7706Z" stroke="white" stroke-width="1.10131" stroke-miterlimit="10"/>
<path d="M18.388 15.3551V28.3664" stroke="white" stroke-width="1.10131" stroke-miterlimit="10"/>
<path d="M28.1656 26.7706C31.3182 26.7706 33.8738 24.215 33.8738 21.0624C33.8738 17.9098 31.3182 15.3541 28.1656 15.3541C25.013 15.3541 22.4573 17.9098 22.4573 21.0624C22.4573 24.215 25.013 26.7706 28.1656 26.7706Z" stroke="white" stroke-width="1.10131" stroke-miterlimit="10"/>
<path d="M23.0077 15.3551V41.044C22.6438 41.0949 22.2767 41.1362 21.9064 41.1679V15.3558L23.0077 15.3551Z" fill="white"/>
<path d="M43.4651 22.3132C43.4651 21.5397 43.6235 20.8548 43.9403 20.2584C44.2665 19.662 44.7045 19.2007 45.2543 18.8745C45.8135 18.539 46.4285 18.3713 47.0995 18.3713C47.7052 18.3713 48.2317 18.4924 48.679 18.7347C49.1357 18.9677 49.4991 19.2613 49.7694 19.6154V18.4971H51.3769V26.1992H49.7694V25.053C49.4991 25.4164 49.131 25.7193 48.6651 25.9616C48.1991 26.2039 47.6679 26.325 47.0715 26.325C46.4099 26.325 45.8041 26.1573 45.2543 25.8218C44.7045 25.477 44.2665 25.0017 43.9403 24.396C43.6235 23.7809 43.4651 23.0867 43.4651 22.3132ZM49.7694 22.3412C49.7694 21.81 49.6575 21.3487 49.4339 20.9573C49.2195 20.5659 48.9353 20.2677 48.5812 20.0627C48.2271 19.8577 47.845 19.7552 47.435 19.7552C47.0249 19.7552 46.6428 19.8577 46.2887 20.0627C45.9346 20.2584 45.6457 20.5519 45.4221 20.9433C45.2077 21.3254 45.1006 21.782 45.1006 22.3132C45.1006 22.8444 45.2077 23.3103 45.4221 23.7111C45.6457 24.1118 45.9346 24.4193 46.2887 24.6336C46.6522 24.8387 47.0342 24.9412 47.435 24.9412C47.845 24.9412 48.2271 24.8387 48.5812 24.6336C48.9353 24.4286 49.2195 24.1304 49.4339 23.739C49.6575 23.3383 49.7694 22.8724 49.7694 22.3412ZM55.0635 15.8552V26.1992H53.4699V15.8552H55.0635ZM58.7492 15.8552V26.1992H57.1556V15.8552H58.7492ZM61.6521 17.4767C61.3632 17.4767 61.1209 17.3788 60.9252 17.1831C60.7295 16.9874 60.6317 16.7451 60.6317 16.4562C60.6317 16.1674 60.7295 15.9251 60.9252 15.7294C61.1209 15.5337 61.3632 15.4358 61.6521 15.4358C61.9317 15.4358 62.1693 15.5337 62.365 15.7294C62.5607 15.9251 62.6586 16.1674 62.6586 16.4562C62.6586 16.7451 62.5607 16.9874 62.365 17.1831C62.1693 17.3788 61.9317 17.4767 61.6521 17.4767ZM62.4349 18.4971V26.1992H60.8414V18.4971H62.4349ZM63.9959 22.3132C63.9959 21.5397 64.1543 20.8548 64.4712 20.2584C64.7973 19.662 65.2353 19.2007 65.7851 18.8745C66.3443 18.539 66.9593 18.3713 67.6303 18.3713C68.236 18.3713 68.7626 18.4924 69.2099 18.7347C69.6665 18.9677 70.0299 19.2613 70.3002 19.6154V18.4971H71.9077V26.1992H70.3002V25.053C70.0299 25.4164 69.6618 25.7193 69.1959 25.9616C68.7299 26.2039 68.1988 26.325 67.6023 26.325C66.9407 26.325 66.335 26.1573 65.7851 25.8218C65.2353 25.477 64.7973 25.0017 64.4712 24.396C64.1543 23.7809 63.9959 23.0867 63.9959 22.3132ZM70.3002 22.3412C70.3002 21.81 70.1884 21.3487 69.9647 20.9573C69.7504 20.5659 69.4661 20.2677 69.112 20.0627C68.7579 19.8577 68.3758 19.7552 67.9658 19.7552C67.5558 19.7552 67.1737 19.8577 66.8196 20.0627C66.4654 20.2584 66.1765 20.5519 65.9529 20.9433C65.7386 21.3254 65.6314 21.782 65.6314 22.3132C65.6314 22.8444 65.7386 23.3103 65.9529 23.7111C66.1765 24.1118 66.4654 24.4193 66.8196 24.6336C67.183 24.8387 67.5651 24.9412 67.9658 24.9412C68.3758 24.9412 68.7579 24.8387 69.112 24.6336C69.4661 24.4286 69.7504 24.1304 69.9647 23.739C70.1884 23.3383 70.3002 22.8724 70.3002 22.3412ZM77.8868 18.3713C78.4925 18.3713 79.033 18.4971 79.5083 18.7487C79.9928 19.0003 80.3703 19.3731 80.6405 19.867C80.9108 20.3609 81.0459 20.9573 81.0459 21.6562V26.1992H79.4663V21.8939C79.4663 21.2043 79.2939 20.6777 78.9491 20.3143C78.6043 19.9415 78.1337 19.7552 77.5373 19.7552C76.9409 19.7552 76.4656 19.9415 76.1115 20.3143C75.7667 20.6777 75.5943 21.2043 75.5943 21.8939V26.1992H74.0008V18.4971H75.5943V19.3777C75.8552 19.0609 76.1861 18.8139 76.5868 18.6369C76.9968 18.4598 77.4301 18.3713 77.8868 18.3713ZM82.5474 22.3412C82.5474 21.5491 82.7058 20.8548 83.0226 20.2584C83.3488 19.6527 83.7961 19.1867 84.3646 18.8605C84.933 18.5344 85.5853 18.3713 86.3215 18.3713C87.2534 18.3713 88.0223 18.5949 88.628 19.0423C89.243 19.4802 89.6577 20.1093 89.8721 20.9293H88.1527C88.0129 20.5473 87.7893 20.2491 87.4818 20.0347C87.1742 19.8204 86.7875 19.7132 86.3215 19.7132C85.6692 19.7132 85.1474 19.9462 84.756 20.4121C84.3739 20.8688 84.1828 21.5118 84.1828 22.3412C84.1828 23.1706 84.3739 23.8182 84.756 24.2842C85.1474 24.7501 85.6692 24.9831 86.3215 24.9831C87.2441 24.9831 87.8545 24.5777 88.1527 23.767H89.8721C89.6484 24.5498 89.2291 25.1741 88.614 25.6401C87.999 26.0967 87.2348 26.325 86.3215 26.325C85.5853 26.325 84.933 26.1619 84.3646 25.8358C83.7961 25.5003 83.3488 25.0343 83.0226 24.4379C82.7058 23.8322 82.5474 23.1333 82.5474 22.3412ZM98.5193 22.1595C98.5193 22.4483 98.5006 22.7093 98.4634 22.9422H92.5784C92.625 23.5573 92.8533 24.0512 93.2634 24.424C93.6734 24.7967 94.1766 24.9831 94.773 24.9831C95.6304 24.9831 96.2361 24.6243 96.5902 23.9068H98.3096C98.0766 24.615 97.6526 25.1974 97.0375 25.6541C96.4318 26.1014 95.677 26.325 94.773 26.325C94.0368 26.325 93.3752 26.1619 92.7881 25.8358C92.2103 25.5003 91.7537 25.0343 91.4182 24.4379C91.0921 23.8322 90.929 23.1333 90.929 22.3412C90.929 21.5491 91.0874 20.8548 91.4042 20.2584C91.7304 19.6527 92.1824 19.1867 92.7601 18.8605C93.3472 18.5344 94.0182 18.3713 94.773 18.3713C95.4999 18.3713 96.1476 18.5297 96.716 18.8466C97.2845 19.1634 97.7272 19.6107 98.044 20.1885C98.3608 20.7569 98.5193 21.4139 98.5193 22.1595ZM96.8558 21.6562C96.8465 21.0691 96.6368 20.5985 96.2268 20.2444C95.8168 19.8903 95.3089 19.7132 94.7032 19.7132C94.1533 19.7132 93.6827 19.8903 93.2913 20.2444C92.8999 20.5892 92.667 21.0598 92.5924 21.6562H96.8558ZM101.681 19.6294C101.951 19.2752 102.319 18.977 102.785 18.7347C103.251 18.4924 103.778 18.3713 104.365 18.3713C105.036 18.3713 105.646 18.539 106.196 18.8745C106.755 19.2007 107.193 19.662 107.51 20.2584C107.827 20.8548 107.985 21.5397 107.985 22.3132C107.985 23.0867 107.827 23.7809 107.51 24.396C107.193 25.0017 106.755 25.477 106.196 25.8218C105.646 26.1573 105.036 26.325 104.365 26.325C103.778 26.325 103.256 26.2085 102.799 25.9756C102.343 25.7333 101.97 25.4351 101.681 25.0809V29.8616H100.087V18.4971H101.681V19.6294ZM106.364 22.3132C106.364 21.782 106.252 21.3254 106.028 20.9433C105.814 20.5519 105.525 20.2584 105.162 20.0627C104.808 19.8577 104.425 19.7552 104.015 19.7552C103.615 19.7552 103.233 19.8577 102.869 20.0627C102.515 20.2677 102.226 20.5659 102.003 20.9573C101.788 21.3487 101.681 21.81 101.681 22.3412C101.681 22.8724 101.788 23.3383 102.003 23.739C102.226 24.1304 102.515 24.4286 102.869 24.6336C103.233 24.8387 103.615 24.9412 104.015 24.9412C104.425 24.9412 104.808 24.8387 105.162 24.6336C105.525 24.4193 105.814 24.1118 106.028 23.7111C106.252 23.3103 106.364 22.8444 106.364 22.3132ZM109.03 22.3132C109.03 21.5397 109.188 20.8548 109.505 20.2584C109.831 19.662 110.269 19.2007 110.819 18.8745C111.378 18.539 111.993 18.3713 112.664 18.3713C113.27 18.3713 113.797 18.4924 114.244 18.7347C114.701 18.9677 115.064 19.2613 115.334 19.6154V18.4971H116.942V26.1992H115.334V25.053C115.064 25.4164 114.696 25.7193 114.23 25.9616C113.764 26.2039 113.233 26.325 112.636 26.325C111.975 26.325 111.369 26.1573 110.819 25.8218C110.269 25.477 109.831 25.0017 109.505 24.396C109.188 23.7809 109.03 23.0867 109.03 22.3132ZM115.334 22.3412C115.334 21.81 115.222 21.3487 114.999 20.9573C114.784 20.5659 114.5 20.2677 114.146 20.0627C113.792 19.8577 113.41 19.7552 113 19.7552C112.59 19.7552 112.208 19.8577 111.854 20.0627C111.499 20.2584 111.211 20.5519 110.987 20.9433C110.773 21.3254 110.665 21.782 110.665 22.3132C110.665 22.8444 110.773 23.3103 110.987 23.7111C111.211 24.1118 111.499 24.4193 111.854 24.6336C112.217 24.8387 112.599 24.9412 113 24.9412C113.41 24.9412 113.792 24.8387 114.146 24.6336C114.5 24.4286 114.784 24.1304 114.999 23.739C115.222 23.3383 115.334 22.8724 115.334 22.3412ZM125.968 18.4971L121.243 29.8196H119.594L121.16 26.0734L118.126 18.4971H119.901L122.068 24.368L124.319 18.4971H125.968Z" fill="#2E3192"/>
</g>
<defs>
<clipPath id="clip0_16_720">
<rect width="126.145" height="40.3556" fill="white" transform="translate(0 0.884766)"/>
</clipPath>
</defs>
</svg>
