<svg width="1440" height="600" viewBox="0 0 1440 600" fill="none" xmlns="http://www.w3.org/2000/svg">
<g clip-path="url(#clip0_16_508)">
<rect width="1440" height="600" fill="white"/>
<path d="M413 222.121C234 377.948 53.3333 302.968 -19 222.121V599H1464V222.121C1444 335.418 1361.44 267.381 1311 222.121C1185.5 109.5 1067.01 106 989.5 222.121C906.541 346.398 782.5 318.5 698.5 222.121C588.433 95.8338 471.899 170.847 413 222.121Z" fill="url(#paint0_linear_16_508)"/>
<path d="M-19 222.121C53.3333 302.968 234 377.948 413 222.121C471.899 170.847 588.433 95.8338 698.5 222.121C782.5 318.5 906.541 346.398 989.5 222.121C1067.01 106 1185.5 109.5 1311 222.121C1361.44 267.381 1444 335.418 1464 222.121" stroke="#9E8DE2" stroke-width="2"/>
<rect x="277" y="274" width="40" height="40" rx="20" fill="#6F4DFF"/>
<path d="M300.809 290.69C301.039 290.173 301.166 289.602 301.166 289C301.166 286.699 299.301 284.833 297 284.833C294.698 284.833 292.833 286.699 292.833 289C292.833 291.152 294.465 292.923 296.558 293.144C297.571 291.7 299.146 290.84 300.809 290.69ZM297.962 298.955C298.663 297.44 298.706 295.645 297.962 294.046C299.2 292.343 301.549 291.816 303.413 292.892C305.406 294.043 306.088 296.591 304.938 298.583C303.787 300.576 301.239 301.259 299.246 300.109C298.725 299.808 298.294 299.412 297.962 298.955ZM292.227 292.356C293.189 293.721 294.722 294.655 296.479 294.811C297.334 296.734 296.616 299.032 294.753 300.109C292.76 301.259 290.211 300.576 289.061 298.583C287.91 296.591 288.593 294.042 290.586 292.892C291.107 292.591 291.665 292.415 292.227 292.356Z" fill="white"/>
<rect x="567" y="138" width="40" height="40" rx="20" fill="#6F4DFF"/>
<path d="M582.833 165.917C580.762 165.917 579.083 164.238 579.083 162.167C579.083 160.096 580.762 158.417 582.833 158.417C584.904 158.417 586.583 160.096 586.583 162.167C586.583 164.238 584.904 165.917 582.833 165.917ZM591.166 157.583C589.095 157.583 587.416 155.904 587.416 153.833C587.416 151.762 589.095 150.083 591.166 150.083C593.237 150.083 594.916 151.762 594.916 153.833C594.916 155.904 593.237 157.583 591.166 157.583ZM579.5 154.667C579.5 152.366 581.365 150.5 583.666 150.5H586.166V152.167H583.666C582.286 152.167 581.166 153.286 581.166 154.667V157.167H579.5V154.667ZM592.833 158.833V161.333C592.833 162.714 591.714 163.833 590.333 163.833H587.833V165.5H590.333C592.634 165.5 594.5 163.635 594.5 161.333V158.833H592.833Z" fill="white"/>
<rect x="855" y="282" width="40" height="40" rx="20" fill="#6F4DFF"/>
<path d="M879.469 301.204C880.639 300.043 882.536 300.043 883.706 301.204C884.876 302.366 884.876 304.249 883.706 305.41L879.166 309.917L874.627 305.41C873.457 304.249 873.457 302.366 874.627 301.204C875.797 300.043 877.694 300.043 878.864 301.204L879.166 301.504L879.469 301.204ZM881.035 295.964C881.819 296.75 882.288 297.729 882.443 298.746C881.332 298.54 880.161 298.738 879.166 299.34C877.374 298.254 875.004 298.481 873.453 300.022C871.677 301.785 871.628 304.617 873.305 306.439L873.453 306.593L875.471 308.597L874.166 309.904L867.101 302.828C865.347 300.864 865.413 297.849 867.297 295.964C869.184 294.078 872.204 294.014 874.167 295.774C876.125 294.017 879.15 294.075 881.035 295.964Z" fill="white"/>
<rect x="1120" y="118" width="40" height="40" rx="20" fill="#6F4DFF"/>
<path d="M1131.67 135.5H1134.17V145.5H1131.67C1131.21 145.5 1130.83 145.127 1130.83 144.667V136.333C1130.83 135.873 1131.21 135.5 1131.67 135.5ZM1136.08 134.423L1141.41 129.089C1141.56 128.942 1141.79 128.926 1141.96 129.05L1142.67 129.583C1143.07 129.886 1143.25 130.402 1143.13 130.891L1142.17 134.667H1147.5C1148.42 134.667 1149.17 135.413 1149.17 136.333V138.087C1149.17 138.305 1149.12 138.52 1149.04 138.721L1146.46 144.984C1146.33 145.296 1146.03 145.5 1145.69 145.5H1136.67C1136.21 145.5 1135.83 145.127 1135.83 144.667V135.012C1135.83 134.791 1135.92 134.579 1136.08 134.423Z" fill="white"/>
</g>
<defs>
<linearGradient id="paint0_linear_16_508" x1="721.915" y1="683" x2="721.915" y2="136.338" gradientUnits="userSpaceOnUse">
<stop stop-color="#FCFCFC"/>
<stop offset="1" stop-color="#F7F5FF"/>
</linearGradient>
<clipPath id="clip0_16_508">
<rect width="1440" height="600" fill="white"/>
</clipPath>
</defs>
</svg>
