<svg width="32" height="32" viewBox="0 0 32 32" fill="none" xmlns="http://www.w3.org/2000/svg">
<path fill-rule="evenodd" clip-rule="evenodd" d="M15.0637 3.02312L7.06365 6.02312C6.02284 6.41343 5.33331 7.4082 5.33331 8.51978L5.33332 16.0053C5.33334 20.7501 12.0037 25.4948 14.7947 27.2724C15.5414 27.748 16.4717 27.7701 17.2361 27.3236C20.0451 25.6828 26.6667 21.2579 26.6667 16.0053V8.51979C26.6667 7.40821 25.9771 6.41343 24.9363 6.02312L16.9363 3.02312C16.3326 2.79674 15.6673 2.79674 15.0637 3.02312ZM17.4284 9.40854L12.0828 14.5012C11.9393 14.638 11.9898 14.8779 12.1763 14.9452L15.2825 16.0649C15.4211 16.1148 15.4929 16.2676 15.4429 16.4062L14.1078 20.1099C14.0124 20.3747 14.3389 20.5875 14.5426 20.3934L19.8883 15.3007C20.0318 15.164 19.9812 14.924 19.7948 14.8568L16.6886 13.7371C16.55 13.6872 16.4782 13.5343 16.5281 13.3958L17.8632 9.69204C17.9587 9.42732 17.6322 9.21444 17.4284 9.40854Z" fill="#7857FF"/>
</svg>
