<svg width="32" height="32" viewBox="0 0 32 32" fill="none" xmlns="http://www.w3.org/2000/svg">
<path d="M24.6667 7.33335V9.00002H27.3333C27.8856 9.00002 28.3333 9.44774 28.3333 10C28.3333 10.5523 27.8856 11 27.3333 11H24.6667V12.6667C24.6667 14.1394 23.4728 15.3334 22 15.3334H14C12.5272 15.3334 11.3333 14.1394 11.3333 12.6667V11L3.33333 11C2.78105 11 2.33333 10.5523 2.33333 10C2.33333 9.44773 2.78105 9.00002 3.33333 9.00002L11.3333 9.00002V7.33335C11.3333 5.86059 12.5272 4.66669 14 4.66669H22C23.4728 4.66669 24.6667 5.86059 24.6667 7.33335Z" fill="#7857FF"/>
<path d="M19.3333 24.6667C19.3333 26.1394 18.1394 27.3334 16.6667 27.3334H8.66667C7.19391 27.3334 6 26.1394 6 24.6667L6 23H3.33333C2.78105 23 2.33333 22.5523 2.33333 22C2.33333 21.4477 2.78105 21 3.33333 21H6V19.3334C6 17.8606 7.19391 16.6667 8.66667 16.6667H16.6667C18.1394 16.6667 19.3333 17.8606 19.3333 19.3334V21L27.3333 21C27.8856 21 28.3333 21.4477 28.3333 22C28.3333 22.5523 27.8856 23 27.3333 23L19.3333 23V24.6667Z" fill="#7857FF"/>
</svg>
