<svg width="32" height="32" viewBox="0 0 32 32" fill="none" xmlns="http://www.w3.org/2000/svg">
<path d="M9.43738 3.57698C8.9434 3.32999 8.34273 3.53022 8.09574 4.0242C7.87831 4.45906 8.00746 4.97661 8.3785 5.26276C7.66075 5.62178 6.86236 6.12781 6.16174 6.82843C5.20899 7.78119 4.61607 8.91473 4.26338 9.78043C4.08506 10.2181 3.96307 10.6 3.8849 10.8756C3.84573 11.0137 3.81733 11.126 3.7982 11.2064C3.78863 11.2465 3.78136 11.2788 3.77622 11.3024L3.77007 11.3312L3.76814 11.3405L3.76745 11.3439L3.76717 11.3452C3.76712 11.3455 3.76695 11.3464 4.74753 11.5425L3.76717 11.3452C3.65886 11.8868 4.00985 12.4147 4.55141 12.5231C5.09222 12.6312 5.61834 12.2811 5.72766 11.7408L5.73023 11.7288C5.73279 11.7171 5.73727 11.6971 5.74381 11.6696C5.75691 11.6146 5.77822 11.5299 5.80903 11.4212C5.87081 11.2034 5.96978 10.8928 6.11556 10.535C6.41105 9.80974 6.87879 8.93981 7.57595 8.24265C8.04513 7.77347 8.59254 7.4082 9.12146 7.12941C9.12854 7.50571 9.34877 7.86214 9.7154 8.02509C10.2201 8.24939 10.811 8.0221 11.0353 7.51741L11.7896 5.82036C12.0067 5.33181 11.8012 4.75889 11.323 4.51979L9.43738 3.57698Z" fill="#7857FF"/>
<path d="M21.2292 28.4178C21.7232 28.6648 22.3239 28.4646 22.5709 27.9706C22.7883 27.5357 22.6592 27.0182 22.2881 26.732C23.0059 26.373 23.8043 25.867 24.5049 25.1664C25.4576 24.2136 26.0506 23.0801 26.4032 22.2144C26.5816 21.7767 26.7036 21.3949 26.7817 21.1192C26.8209 20.9811 26.8493 20.8688 26.8684 20.7885C26.878 20.7483 26.8853 20.716 26.8904 20.6924L26.8966 20.6637L26.8985 20.6543L26.8992 20.651L26.8995 20.6496C26.8995 20.6493 26.8997 20.6484 25.9191 20.4523L26.8995 20.6496C27.0078 20.108 26.6568 19.5801 26.1152 19.4718C25.5744 19.3636 25.0482 19.7137 24.939 20.254L24.9386 20.2557L24.9364 20.266C24.9338 20.2777 24.9294 20.2977 24.9228 20.3252C24.9097 20.3802 24.8884 20.4649 24.8576 20.5736C24.7958 20.7914 24.6968 21.102 24.5511 21.4598C24.2556 22.1851 23.7878 23.055 23.0907 23.7522C22.6215 24.2213 22.0741 24.5866 21.5452 24.8654C21.5381 24.4891 21.3179 24.1327 20.9512 23.9697C20.4465 23.7454 19.8556 23.9727 19.6313 24.4774L18.877 26.1745C18.6599 26.663 18.8654 27.2359 19.3436 27.475L21.2292 28.4178Z" fill="#7857FF"/>
<path d="M19.3333 20C19.3333 24.4183 15.7516 28 11.3333 28C6.91503 28 3.33331 24.4183 3.33331 20C3.33331 15.5817 6.91503 12 11.3333 12C15.7516 12 19.3333 15.5817 19.3333 20Z" fill="#7857FF"/>
<path d="M28.6665 12C28.6665 16.4183 25.0848 20 20.6665 20C20.6296 20 20.5928 19.9998 20.556 19.9993C20.6287 19.5659 20.6665 19.1207 20.6665 18.6667C20.6665 14.2853 17.1443 10.7265 12.777 10.6674C13.4115 6.88344 16.7023 4.00001 20.6665 4.00001C25.0848 4.00001 28.6665 7.58173 28.6665 12Z" fill="#7857FF"/>
</svg>
