<svg width="105" height="28" viewBox="0 0 105 28" fill="none" xmlns="http://www.w3.org/2000/svg">
<g clip-path="url(#clip0_16_744)">
<path d="M53.6286 13.0537C53.4183 12.8592 53.3137 12.6001 53.3137 12.2765C53.3137 11.9537 53.4183 11.6947 53.6286 11.4993C53.8379 11.3047 54.1197 11.207 54.473 11.207C54.8263 11.207 55.1098 11.3047 55.3244 11.4993C55.539 11.6947 55.6463 11.9529 55.6463 12.2765C55.6463 12.6001 55.5416 12.8592 55.3313 13.0537C55.1211 13.2483 54.835 13.346 54.473 13.346C54.1197 13.346 53.8388 13.2491 53.6286 13.0537Z" fill="#0A0903"/>
<path d="M2.09956 23.2548C1.32493 22.8709 0.693371 22.3187 0.205742 21.5982L1.72446 20.1571C2.1266 20.6256 2.61423 21.0094 3.18822 21.3095C3.76134 21.6095 4.29782 21.7596 4.79853 21.7596C5.35943 21.7596 5.81043 21.6331 6.15238 21.381C6.49346 21.1289 6.66443 20.7992 6.66443 20.3909C6.66443 20.0908 6.60948 19.8448 6.49956 19.6529C6.38965 19.461 6.18204 19.2656 5.87759 19.0676C5.57228 18.8696 5.07244 18.6026 4.3772 18.2659C3.46213 17.8219 2.74246 17.4076 2.21819 17.0237C1.69393 16.6399 1.30662 16.2221 1.05626 15.772C0.805901 15.3218 0.681159 14.7967 0.681159 14.1965C0.681159 13.5362 0.85824 12.9543 1.21153 12.4493C1.56482 11.9451 2.06466 11.5551 2.71193 11.2786C3.35832 11.003 4.10241 10.8643 4.94421 10.8643C5.87062 10.8643 6.69147 11.0387 7.40503 11.3868C8.1186 11.7348 8.64025 12.2155 8.96911 12.827L7.30472 14.0517C6.69496 13.3076 5.94476 12.9352 5.05412 12.9352C4.49322 12.9352 4.05967 13.0433 3.75523 13.2597C3.44992 13.476 3.29813 13.7822 3.29813 14.1782C3.29813 14.4181 3.37402 14.6344 3.52668 14.8264C3.67934 15.0183 3.95674 15.2285 4.35888 15.457C4.76102 15.6856 5.36467 15.9857 6.16982 16.3573C6.95055 16.7176 7.56292 17.0778 8.00868 17.4381C8.45357 17.7984 8.77371 18.2005 8.96911 18.6445C9.16364 19.0885 9.26221 19.6172 9.26221 20.2295C9.26221 20.9501 9.07641 21.5834 8.70393 22.1295C8.33144 22.6755 7.80107 23.096 7.11193 23.39C6.4228 23.6839 5.62113 23.8314 4.70606 23.8314C3.74302 23.8305 2.87331 23.6386 2.09956 23.2548Z" fill="#0A0903"/>
<path d="M11.8654 23.4702C11.3821 23.2303 11.0044 22.8962 10.7314 22.4688C10.4583 22.0413 10.3223 21.5633 10.3223 21.0364C10.3223 20.1344 10.7 19.4436 11.4563 18.9629C12.2117 18.4823 13.2899 18.2424 14.69 18.2424H16.1398V17.8734C16.1398 17.4049 15.9941 17.0447 15.7027 16.7926C15.4114 16.5405 14.9997 16.4149 14.4667 16.4149C13.9092 16.4149 13.3763 16.5091 12.8686 16.6957C12.36 16.8833 11.9456 17.1406 11.6238 17.4686L10.5831 16.168C11.0908 15.7109 11.6918 15.3506 12.3853 15.0872C13.0788 14.8237 13.7976 14.692 14.5408 14.692C15.7795 14.692 16.7522 14.9677 17.4587 15.5181C18.1653 16.0685 18.5177 16.8301 18.5177 17.8027V21.8102C18.5177 22.0797 18.5395 22.3964 18.5832 22.7593C18.6268 23.1222 18.6791 23.5391 18.7411 23.7738H16.6414C16.5672 23.622 16.5114 23.3542 16.4739 23.2076C16.4364 23.0611 16.4058 22.8587 16.3805 22.6014H16.3439C15.6373 23.4214 14.69 23.8314 13.501 23.8314C12.893 23.8305 12.3487 23.711 11.8654 23.4702ZM15.5536 21.7134C15.9435 21.4264 16.1389 21.06 16.1389 20.6151V19.7367H14.615C13.9834 19.7367 13.4966 19.8483 13.1564 20.0708C12.8154 20.2932 12.6453 20.616 12.6453 21.0373C12.6453 21.3888 12.7717 21.661 13.0265 21.8547C13.2803 22.0483 13.6301 22.1443 14.0767 22.1443C14.6717 22.1434 15.1637 22.0003 15.5536 21.7134Z" fill="#0A0903"/>
<path d="M28.5896 14.692L25.1029 24.223C24.7252 25.2437 24.2053 26.0122 23.5423 26.5286C22.8785 27.045 22.0847 27.3032 21.16 27.3032C20.6733 27.3032 20.1743 27.236 19.6631 27.1026V25.262C19.8088 25.3099 19.992 25.3536 20.2109 25.3893C20.4299 25.426 20.6244 25.4443 20.7954 25.4443C21.331 25.4443 21.7907 25.2594 22.1737 24.8886C22.5566 24.5179 22.9012 23.9317 23.2047 23.13L19.8088 14.692H22.2914L24.2995 20.5235L26.107 14.692H28.5896Z" fill="#0A0903"/>
<path d="M31.5591 23.2546C30.7845 22.8708 30.1529 22.3186 29.6653 21.5981L31.184 20.157C31.5862 20.6254 32.0738 21.0093 32.6478 21.3093C33.2209 21.6094 33.7574 21.7595 34.2581 21.7595C34.819 21.7595 35.27 21.633 35.6119 21.3809C35.953 21.1288 36.124 20.799 36.124 20.3908C36.124 20.0907 36.069 19.8447 35.9591 19.6528C35.8492 19.4609 35.6416 19.2655 35.3372 19.0675C35.0318 18.8695 34.532 18.6025 33.8368 18.2658C32.9217 17.8218 32.202 17.4074 31.6777 17.0236C31.1535 16.6398 30.7662 16.222 30.5158 15.7718C30.2655 15.3217 30.1407 14.7966 30.1407 14.1964C30.1407 13.5361 30.3178 12.9542 30.6711 12.4491C31.0244 11.9449 31.5242 11.555 32.1715 11.2785C32.8179 11.0028 33.562 10.8641 34.4038 10.8641C35.3302 10.8641 36.151 11.0386 36.8646 11.3867C37.5782 11.7347 38.0998 12.2154 38.4287 12.8269L36.7643 14.0516C36.1545 13.3075 35.4043 12.935 34.5137 12.935C33.9528 12.935 33.5192 13.0432 33.2148 13.2595C32.9095 13.4759 32.7577 13.7821 32.7577 14.1781C32.7577 14.418 32.8336 14.6343 32.9862 14.8262C33.1389 15.0181 33.4163 15.2284 33.8184 15.4569C34.2206 15.6855 34.8242 15.9856 35.6294 16.3572C36.4101 16.7174 37.0225 17.0777 37.4682 17.438C37.9131 17.7982 38.2333 18.2004 38.4287 18.6444C38.6232 19.0884 38.7218 19.617 38.7218 20.2294C38.7218 20.9499 38.536 21.5833 38.1635 22.1293C37.791 22.6754 37.2606 23.0959 36.5715 23.3898C35.8824 23.6838 35.0807 23.8312 34.1656 23.8312C33.2026 23.8304 32.3337 23.6385 31.5591 23.2546Z" fill="#0A0903"/>
<path d="M52.2398 14.692L49.9011 23.8043H47.8546L46.0271 17.2069L44.1996 23.8043H42.1348L39.7961 14.692H42.2264L43.3779 20.3595L44.9856 14.692H47.0504L48.6581 20.3595L49.8095 14.692H52.2398Z" fill="#0A0903"/>
<path d="M55.6326 14.692H53.3096V23.8043H55.6326V14.692Z" fill="#0A0903"/>
<path d="M59.1319 23.0498C58.6094 22.5474 58.3485 21.8408 58.3485 20.931V16.9453H56.6903V14.6467H58.3485V12.3307L60.6079 11.6843H60.6811V14.6467H63.3234V16.9453H60.6811V20.5899C60.6811 21.1046 60.8024 21.4814 61.0458 21.7213C61.2883 21.9612 61.659 22.0807 62.1571 22.0807C62.6308 22.0807 63.0739 22.0092 63.4874 21.8652L63.5964 23.4276C63.0495 23.6788 62.2906 23.8044 61.3188 23.8044C60.3828 23.8044 59.6544 23.5532 59.1319 23.0498Z" fill="#0A0903"/>
<path d="M65.899 22.6036C65.0877 21.7853 64.6821 20.6644 64.6821 19.239C64.6821 17.8032 65.0877 16.6787 65.899 15.8657C66.7102 15.0536 67.8224 14.6471 69.2374 14.6471C70.0905 14.6471 70.8346 14.8006 71.4696 15.1059C72.1038 15.4121 72.5914 15.8474 72.9334 16.4127L71.5246 17.5956C71.2926 17.2074 70.9846 16.9073 70.6008 16.6953C70.217 16.4833 69.7983 16.3778 69.3473 16.3778C68.6154 16.3778 68.0423 16.6308 67.6279 17.1376C67.2136 17.6435 67.006 18.3449 67.006 19.239C67.006 20.134 67.2136 20.8345 67.6279 21.3404C68.0423 21.8464 68.6154 22.0994 69.3473 22.0994C69.7983 22.0994 70.2135 21.9903 70.5912 21.7722C70.9689 21.5542 71.2803 21.2576 71.5246 20.8807L72.9334 22.0636C72.5914 22.6289 72.1038 23.0642 71.4696 23.3703C70.8355 23.6765 70.0914 23.8292 69.2374 23.8292C67.8233 23.8301 66.7102 23.4218 65.899 22.6036Z" fill="#0A0903"/>
<path d="M73.9936 10.8512H76.3349V15.8191C76.6149 15.43 77.0083 15.1238 77.5151 14.8988C78.0211 14.6737 78.5733 14.6441 79.1708 14.6441C80.2071 14.6441 81.0393 14.9843 81.6683 15.6647C82.2963 16.3451 82.6104 17.1468 82.6104 18.3375V23.8043H80.2691V18.5015C80.2691 17.7966 80.1164 17.2436 79.812 16.8432C79.5067 16.4419 79.0862 16.2413 78.5497 16.2413C77.8789 16.2413 77.3424 16.4751 76.9394 16.9426C76.5373 17.4102 76.3358 18.0453 76.3358 18.8469V23.8035H73.9944V10.8512H73.9936Z" fill="#0A0903"/>
<path d="M88.1206 0.821533L103.282 9.5125C103.691 9.74628 104.017 10.1022 104.197 10.534C104.298 10.7774 104.362 11.0617 104.331 11.374C104.273 11.962 103.855 12.2594 103.419 12.7183C103.096 13.0585 102.599 13.4327 101.738 14.1585C101.718 14.0931 101.641 13.9108 101.62 13.8462C101.534 13.574 101.348 13.3438 101.099 13.2016L89.3287 6.46547C89.3287 6.46547 88.2375 6.04065 88.1206 4.378C88.0037 2.71535 88.1206 0.821533 88.1206 0.821533Z" fill="#008037"/>
<path d="M85.3156 7.04456L100.6 15.8768C101.01 16.1141 101.34 16.4761 101.521 16.9149C101.623 17.1618 101.687 17.4514 101.657 17.768C101.599 18.3656 101.232 18.7555 100.792 19.2213C100.466 19.5676 99.9061 19.9611 98.9858 20.4784C98.9648 20.4121 98.9448 20.3458 98.9238 20.2803C98.8375 20.0038 98.6499 19.77 98.3987 19.6252L86.5333 12.7801C86.5333 12.7801 85.4333 12.3483 85.3156 10.6586C85.1978 8.96978 85.3156 7.04456 85.3156 7.04456Z" fill="#008037"/>
<path d="M88.2232 16.6533L96.6071 21.465C96.6646 21.4982 96.6638 21.5793 96.6062 21.6107L92.6938 23.7758C92.5167 23.8735 92.2987 23.87 92.1251 23.7662L88.8408 21.8864C88.8408 21.8864 88.1194 21.4092 88.0792 19.4386C88.0478 17.9007 88.1028 17.004 88.1115 16.7126C88.1133 16.6585 88.1743 16.6254 88.2232 16.6533Z" fill="#008037"/>
</g>
<defs>
<clipPath id="clip0_16_744">
<rect width="104.137" height="26.4803" fill="white" transform="translate(0.205872 0.822388)"/>
</clipPath>
</defs>
</svg>
