<svg width="32" height="32" viewBox="0 0 32 32" fill="none" xmlns="http://www.w3.org/2000/svg">
<path fill-rule="evenodd" clip-rule="evenodd" d="M9.66667 10.6667V8.00002C9.66667 4.50222 12.5022 1.66669 16 1.66669C19.4978 1.66669 22.3333 4.50222 22.3333 8.00002V10.6667H22.6667C25.6122 10.6667 28 13.0545 28 16V24C28 26.9455 25.6122 29.3334 22.6667 29.3334H9.33333C6.38781 29.3334 4 26.9455 4 24V16C4 13.0545 6.38781 10.6667 9.33333 10.6667H9.66667ZM11.6667 8.00002C11.6667 5.60679 13.6068 3.66669 16 3.66669C18.3932 3.66669 20.3333 5.60679 20.3333 8.00002V10.6667H11.6667V8.00002ZM17.3333 18.6667C17.3333 19.0048 17.2075 19.3136 17 19.5486V24C17 24.5523 16.5523 25 16 25C15.4477 25 15 24.5523 15 24V19.5486C14.7925 19.3136 14.6667 19.0048 14.6667 18.6667C14.6667 17.9303 15.2636 17.3334 16 17.3334C16.7364 17.3334 17.3333 17.9303 17.3333 18.6667Z" fill="#7857FF"/>
</svg>
