<svg width="134" height="40" viewBox="0 0 134 40" fill="none" xmlns="http://www.w3.org/2000/svg">
<g clip-path="url(#clip0_16_729)">
<path d="M17.6609 17.0669C17.4251 17.0669 17.2467 17.2801 17.2882 17.5122L19.3074 28.8026C19.3397 28.9832 19.4968 29.1146 19.6802 29.1146H24.6278C24.7923 29.1146 24.938 29.0084 24.9883 28.8518L33.7058 1.71806C33.7783 1.49217 33.6277 1.25594 33.3922 1.22651L31.1252 0.943132C30.9457 0.920689 30.7753 1.0284 30.7187 1.20024L22.7314 25.412C22.6099 25.7801 22.0793 25.7495 22.0009 25.3699L20.349 17.369C20.3127 17.1931 20.1578 17.0669 19.9782 17.0669H17.6609Z" fill="url(#paint0_linear_16_729)"/>
<path d="M8.48211 17.5112C8.44053 17.279 8.619 17.0658 8.85482 17.0658H11.1745C11.354 17.0658 11.509 17.192 11.5453 17.3678L13.2013 25.3822C13.2795 25.761 13.8082 25.7926 13.9311 25.426L16.6463 17.3242C16.698 17.1698 16.8426 17.0658 17.0053 17.0658L19.6146 17.066C19.8733 17.066 20.0558 17.3197 19.9736 17.565L16.1902 28.8551C16.1385 29.0095 15.9939 29.1135 15.8312 29.1135H10.8756C10.6922 29.1135 10.5352 28.9821 10.5029 28.8016L8.48211 17.5112Z" fill="url(#paint1_linear_16_729)"/>
<path d="M35.1431 13.939C35.3365 13.8594 35.5582 13.9515 35.6338 14.1465C37.1343 18.018 37.2798 22.2879 36.0398 26.2583C34.7621 30.3492 32.0938 33.8645 28.4971 36.1951C24.9003 38.5259 20.6018 39.5254 16.3458 39.0202C12.0898 38.5151 8.14447 36.5374 5.19316 33.4297C2.24182 30.3219 0.47035 26.2799 0.185566 22.0035C-0.0992181 17.7271 1.12061 13.4858 3.63379 10.0141C6.14697 6.54248 9.79519 4.05914 13.9467 2.9942C17.9757 1.96066 22.2324 2.3263 26.0213 4.02457C26.2121 4.1101 26.2927 4.33624 26.2033 4.52527L25.1275 6.79864C25.038 6.98767 24.8124 7.0679 24.6212 6.98323C21.523 5.61113 18.049 5.32013 14.7597 6.16393C11.348 7.03912 8.34985 9.07998 6.28449 11.933C4.21914 14.7861 3.21665 18.2717 3.45069 21.786C3.68473 25.3004 5.14053 28.6223 7.56599 31.1763C9.99145 33.7303 13.2338 35.3556 16.7314 35.7706C20.229 36.1857 23.7617 35.3644 26.7175 33.449C29.6733 31.5335 31.8661 28.6447 32.9162 25.2827C33.9286 22.0413 33.8172 18.5569 32.6068 15.3921C32.5321 15.1967 32.6239 14.9755 32.8173 14.896L35.1431 13.939Z" fill="url(#paint2_linear_16_729)"/>
</g>
<path d="M45.162 25.5626L42.6505 17.3281L44.4466 17.3433L46.0524 22.6174L47.681 17.3433H49.226L50.847 22.6174L52.4604 17.3433H54.2565L51.745 25.5626H50.3143L48.4497 19.908L46.5927 25.5626H45.162ZM58.9629 25.7909C58.141 25.7909 57.423 25.6057 56.8091 25.2354C56.1952 24.865 55.7183 24.3551 55.3783 23.7057C55.0435 23.0512 54.8761 22.3003 54.8761 21.4529C54.8761 20.5904 55.0486 19.8344 55.3936 19.185C55.7386 18.5356 56.218 18.0282 56.832 17.6629C57.4459 17.2976 58.1562 17.115 58.9629 17.115C59.7899 17.115 60.5104 17.3001 61.1243 17.6705C61.7382 18.0409 62.2151 18.5533 62.5551 19.2078C62.895 19.8573 63.065 20.6056 63.065 21.4529C63.065 22.3053 62.8925 23.0588 62.5474 23.7133C62.2075 24.3627 61.7306 24.8726 61.1167 25.243C60.5028 25.6083 59.7848 25.7909 58.9629 25.7909ZM58.9629 24.071C59.6935 24.071 60.2364 23.8274 60.5915 23.3404C60.9467 22.8533 61.1243 22.2241 61.1243 21.4529C61.1243 20.6564 60.9442 20.0222 60.5839 19.5503C60.2237 19.0734 59.6834 18.8349 58.9629 18.8349C58.4708 18.8349 58.0649 18.9466 57.7452 19.1698C57.4306 19.388 57.1973 19.6949 57.045 20.0907C56.8928 20.4813 56.8167 20.9354 56.8167 21.4529C56.8167 22.2495 56.9969 22.8863 57.3571 23.3632C57.7224 23.835 58.2577 24.071 58.9629 24.071ZM68.372 25.7909C67.55 25.7909 66.8321 25.6057 66.2182 25.2354C65.6043 24.865 65.1274 24.3551 64.7874 23.7057C64.4526 23.0512 64.2851 22.3003 64.2851 21.4529C64.2851 20.5904 64.4576 19.8344 64.8027 19.185C65.1477 18.5356 65.6271 18.0282 66.241 17.6629C66.855 17.2976 67.5653 17.115 68.372 17.115C69.199 17.115 69.9195 17.3001 70.5334 17.6705C71.1473 18.0409 71.6242 18.5533 71.9641 19.2078C72.3041 19.8573 72.474 20.6056 72.474 21.4529C72.474 22.3053 72.3015 23.0588 71.9565 23.7133C71.6166 24.3627 71.1397 24.8726 70.5258 25.243C69.9118 25.6083 69.1939 25.7909 68.372 25.7909ZM68.372 24.071C69.1026 24.071 69.6455 23.8274 70.0006 23.3404C70.3558 22.8533 70.5334 22.2241 70.5334 21.4529C70.5334 20.6564 70.3533 20.0222 69.993 19.5503C69.6328 19.0734 69.0924 18.8349 68.372 18.8349C67.8798 18.8349 67.4739 18.9466 67.1543 19.1698C66.8397 19.388 66.6063 19.6949 66.4541 20.0907C66.3019 20.4813 66.2258 20.9354 66.2258 21.4529C66.2258 22.2495 66.4059 22.8863 66.7662 23.3632C67.1315 23.835 67.6667 24.071 68.372 24.071ZM77.4462 25.7909C76.6902 25.7909 76.0307 25.6007 75.4675 25.2201C74.9043 24.8396 74.468 24.3221 74.1585 23.6676C73.849 23.0131 73.6942 22.2749 73.6942 21.4529C73.6942 20.6209 73.849 19.8801 74.1585 19.2307C74.473 18.5762 74.917 18.0612 75.4903 17.6857C76.0636 17.3052 76.7384 17.115 77.5147 17.115C78.296 17.115 78.9505 17.3052 79.4782 17.6857C80.0109 18.0612 80.4143 18.5762 80.6883 19.2307C80.9623 19.8852 81.0992 20.6259 81.0992 21.4529C81.0992 22.2698 80.9623 23.008 80.6883 23.6676C80.4143 24.3221 80.0059 24.8396 79.463 25.2201C78.9201 25.6007 78.2478 25.7909 77.4462 25.7909ZM77.7278 24.1471C78.2199 24.1471 78.6157 24.0354 78.915 23.8122C79.2195 23.5839 79.4402 23.2668 79.5771 22.8609C79.7192 22.455 79.7902 21.9857 79.7902 21.4529C79.7902 20.9151 79.7192 20.4458 79.5771 20.045C79.4402 19.6391 79.2245 19.3245 78.9303 19.1013C78.636 18.873 78.2555 18.7588 77.7887 18.7588C77.2965 18.7588 76.8906 18.8806 76.571 19.1241C76.2514 19.3626 76.0154 19.6873 75.8632 20.0983C75.711 20.5042 75.6349 20.9557 75.6349 21.4529C75.6349 21.9552 75.7085 22.4119 75.8556 22.8228C76.0078 23.2287 76.2387 23.5509 76.5482 23.7894C76.8577 24.0278 77.2509 24.1471 77.7278 24.1471ZM79.7902 25.5626V19.7939H79.5619V14.6035H81.4113V25.5626H79.7902ZM87.1144 25.7909C86.2671 25.7909 85.5441 25.6032 84.9454 25.2278C84.3467 24.8472 83.8875 24.3297 83.5679 23.6752C83.2533 23.0207 83.0935 22.28 83.0884 21.4529C83.0935 20.6107 83.2584 19.8649 83.5831 19.2155C83.9129 18.561 84.3797 18.0485 84.9835 17.6781C85.5872 17.3027 86.3052 17.115 87.1372 17.115C88.0708 17.115 88.8597 17.3509 89.5041 17.8227C90.1535 18.2895 90.5772 18.9288 90.7751 19.7406L88.9485 20.2353C88.8065 19.7939 88.5705 19.4514 88.2408 19.2078C87.911 18.9592 87.5355 18.8349 87.1144 18.8349C86.6375 18.8349 86.2443 18.9491 85.9348 19.1774C85.6253 19.4006 85.397 19.7101 85.2498 20.1059C85.1027 20.5016 85.0291 20.9507 85.0291 21.4529C85.0291 22.2343 85.2042 22.866 85.5542 23.348C85.9043 23.83 86.4244 24.071 87.1144 24.071C87.6015 24.071 87.9845 23.9593 88.2636 23.7361C88.5477 23.5129 88.7608 23.1907 88.9029 22.7696L90.7751 23.1881C90.5214 24.0253 90.0774 24.6697 89.4432 25.1212C88.809 25.5677 88.0327 25.7909 87.1144 25.7909ZM97.9852 25.5626V21.6052C97.9852 21.3464 97.9674 21.0597 97.9319 20.7452C97.8964 20.4306 97.8127 20.1287 97.6808 19.8395C97.5539 19.5452 97.3611 19.3042 97.1024 19.1165C96.8487 18.9288 96.5037 18.8349 96.0673 18.8349C95.8339 18.8349 95.6031 18.873 95.3748 18.9491C95.1465 19.0252 94.9384 19.1571 94.7507 19.3448C94.5681 19.5275 94.4209 19.7812 94.3093 20.1059C94.1977 20.4255 94.1419 20.8365 94.1419 21.3388L93.0536 20.8745C93.0536 20.1744 93.188 19.5402 93.4569 18.9719C93.7309 18.4037 94.1317 17.9521 94.6594 17.6173C95.187 17.2773 95.8365 17.1073 96.6077 17.1073C97.2165 17.1073 97.7188 17.2088 98.1146 17.4118C98.5103 17.6147 98.8249 17.8735 99.0583 18.188C99.2916 18.5026 99.4642 18.8375 99.5758 19.1926C99.6874 19.5478 99.7584 19.8852 99.7889 20.2048C99.8244 20.5194 99.8421 20.7756 99.8421 20.9735V25.5626H97.9852ZM92.2849 25.5626V14.6035H93.9212V20.3723H94.1419V25.5626H92.2849ZM101.98 16.0952V14.4132H103.814V16.0952H101.98ZM101.98 25.5626V17.3433H103.814V25.5626H101.98ZM110.044 25.7909C109.242 25.7909 108.57 25.6007 108.027 25.2201C107.484 24.8396 107.076 24.3221 106.802 23.6676C106.528 23.008 106.391 22.2698 106.391 21.4529C106.391 20.6259 106.528 19.8852 106.802 19.2307C107.076 18.5762 107.477 18.0612 108.004 17.6857C108.537 17.3052 109.194 17.115 109.976 17.115C110.752 17.115 111.424 17.3052 111.992 17.6857C112.566 18.0612 113.01 18.5762 113.324 19.2307C113.639 19.8801 113.796 20.6209 113.796 21.4529C113.796 22.2749 113.641 23.0131 113.332 23.6676C113.022 24.3221 112.586 24.8396 112.023 25.2201C111.46 25.6007 110.8 25.7909 110.044 25.7909ZM106.079 29.2157V17.3433H107.7V23.112H107.928V29.2157H106.079ZM109.762 24.1471C110.239 24.1471 110.633 24.0278 110.942 23.7894C111.252 23.5509 111.48 23.2287 111.627 22.8228C111.779 22.4119 111.855 21.9552 111.855 21.4529C111.855 20.9557 111.779 20.5042 111.627 20.0983C111.475 19.6873 111.239 19.3626 110.919 19.1241C110.6 18.8806 110.194 18.7588 109.702 18.7588C109.235 18.7588 108.854 18.873 108.56 19.1013C108.266 19.3245 108.048 19.6391 107.905 20.045C107.768 20.4458 107.7 20.9151 107.7 21.4529C107.7 21.9857 107.768 22.455 107.905 22.8609C108.048 23.2668 108.268 23.5839 108.568 23.8122C108.872 24.0354 109.27 24.1471 109.762 24.1471ZM121.159 25.5626V21.6052C121.159 21.3464 121.141 21.0597 121.105 20.7452C121.07 20.4306 120.986 20.1287 120.854 19.8395C120.727 19.5452 120.535 19.3042 120.276 19.1165C120.022 18.9288 119.677 18.8349 119.241 18.8349C119.007 18.8349 118.776 18.873 118.548 18.9491C118.32 19.0252 118.112 19.1571 117.924 19.3448C117.741 19.5275 117.594 19.7812 117.483 20.1059C117.371 20.4255 117.315 20.8365 117.315 21.3388L116.227 20.8745C116.227 20.1744 116.361 19.5402 116.63 18.9719C116.904 18.4037 117.305 17.9521 117.833 17.6173C118.36 17.2773 119.01 17.1073 119.781 17.1073C120.39 17.1073 120.892 17.2088 121.288 17.4118C121.684 17.6147 121.998 17.8735 122.232 18.188C122.465 18.5026 122.638 18.8375 122.749 19.1926C122.861 19.5478 122.932 19.8852 122.962 20.2048C122.998 20.5194 123.016 20.7756 123.016 20.9735V25.5626H121.159ZM115.458 25.5626V17.3433H117.095V19.8928H117.315V25.5626H115.458ZM128.457 29.444C128 29.444 127.561 29.3729 127.14 29.2309C126.724 29.0888 126.349 28.8833 126.014 28.6144C125.679 28.3506 125.405 28.031 125.192 27.6555L126.881 26.8184C127.039 27.1177 127.259 27.3384 127.543 27.4805C127.833 27.6276 128.14 27.7012 128.464 27.7012C128.845 27.7012 129.185 27.6327 129.484 27.4957C129.783 27.3638 130.014 27.1659 130.177 26.9021C130.344 26.6433 130.423 26.3186 130.413 25.9279V23.5915H130.641V17.3433H132.247V25.9584C132.247 26.1664 132.237 26.3643 132.216 26.552C132.201 26.7448 132.173 26.9325 132.133 27.1152C132.011 27.6479 131.777 28.0842 131.432 28.4242C131.087 28.7692 130.659 29.0254 130.146 29.1928C129.639 29.3603 129.076 29.444 128.457 29.444ZM128.297 25.7909C127.541 25.7909 126.881 25.6007 126.318 25.2201C125.755 24.8396 125.319 24.3221 125.009 23.6676C124.7 23.0131 124.545 22.2749 124.545 21.4529C124.545 20.6209 124.7 19.8801 125.009 19.2307C125.324 18.5762 125.768 18.0612 126.341 17.6857C126.914 17.3052 127.589 17.115 128.365 17.115C129.147 17.115 129.801 17.3052 130.329 17.6857C130.862 18.0612 131.265 18.5762 131.539 19.2307C131.813 19.8852 131.95 20.6259 131.95 21.4529C131.95 22.2698 131.813 23.008 131.539 23.6676C131.265 24.3221 130.857 24.8396 130.314 25.2201C129.771 25.6007 129.099 25.7909 128.297 25.7909ZM128.578 24.1471C129.071 24.1471 129.466 24.0354 129.766 23.8122C130.07 23.5839 130.291 23.2668 130.428 22.8609C130.57 22.455 130.641 21.9857 130.641 21.4529C130.641 20.9151 130.57 20.4458 130.428 20.045C130.291 19.6391 130.075 19.3245 129.781 19.1013C129.487 18.873 129.106 18.7588 128.639 18.7588C128.147 18.7588 127.741 18.8806 127.422 19.1241C127.102 19.3626 126.866 19.6873 126.714 20.0983C126.562 20.5042 126.486 20.9557 126.486 21.4529C126.486 21.9552 126.559 22.4119 126.706 22.8228C126.858 23.2287 127.089 23.5509 127.399 23.7894C127.708 24.0278 128.102 24.1471 128.578 24.1471Z" fill="#0C021A"/>
<defs>
<linearGradient id="paint0_linear_16_729" x1="-19.2466" y1="39.0045" x2="3.05615" y2="-0.188591" gradientUnits="userSpaceOnUse">
<stop offset="0.0203439" stop-color="#BE0BFA"/>
<stop offset="0.925" stop-color="#5D3EA8"/>
</linearGradient>
<linearGradient id="paint1_linear_16_729" x1="-19.2459" y1="39.0035" x2="3.05687" y2="-0.189529" gradientUnits="userSpaceOnUse">
<stop offset="0.0203439" stop-color="#BE0BFA"/>
<stop offset="0.925" stop-color="#5D3EA8"/>
</linearGradient>
<linearGradient id="paint2_linear_16_729" x1="-19.2465" y1="39.0036" x2="3.05628" y2="-0.1895" gradientUnits="userSpaceOnUse">
<stop offset="0.0203439" stop-color="#BE0BFA"/>
<stop offset="0.925" stop-color="#5D3EA8"/>
</linearGradient>
<clipPath id="clip0_16_729">
<rect width="36.7299" height="38.2445" fill="white" transform="translate(0.145264 0.940308)"/>
</clipPath>
</defs>
</svg>
